PathFileType	4	(X/Y/Z)	..\data\2014015\dynamic\2014015_C4_04.trc
DataRate	CameraRate	NumFrames	NumMarkers	Units	OrigDataRate	OrigDataStartFrame	OrigNumFrames
100.000000	100.000000	4	52	mm	100.000000	23	190
Frame#	Time	L_IAS			L_IPS			R_IPS			R_IAS			L_FTC			L_FLE			L_FME			L_FAX			L_TTC			L_FAL			L_TAM			L_FCC			L_FM1			L_FM2			L_FM5			R_FTC			R_FLE			R_FME			R_FAX			R_TTC			R_FAL			R_TAM			R_FCC			R_FM1			R_FM2			R_FM5			CV7			TV10			SXS			SJN			L_SIA			L_SRS			L_SAA			L_SAE			L_HLE			L_HME			L_UOA			L_RSP			L_UHE			L_HM2			L_HM5			R_SIA			R_SRS			R_SAA			R_SAE			R_HLE			R_HME			R_UOA			R_RSP			R_UHE			R_HM2			R_HM5			
		X1	Y1	Z1	X2	Y2	Z2	X3	Y3	Z3	X4	Y4	Z4	X5	Y5	Z5	X6	Y6	Z6	X7	Y7	Z7	X8	Y8	Z8	X9	Y9	Z9	X10	Y10	Z10	X11	Y11	Z11	X12	Y12	Z12	X13	Y13	Z13	X14	Y14	Z14	X15	Y15	Z15	X16	Y16	Z16	X17	Y17	Z17	X18	Y18	Z18	X19	Y19	Z19	X20	Y20	Z20	X21	Y21	Z21	X22	Y22	Z22	X23	Y23	Z23	X24	Y24	Z24	X25	Y25	Z25	X26	Y26	Z26	X27	Y27	Z27	X28	Y28	Z28	X29	Y29	Z29	X30	Y30	Z30	X31	Y31	Z31	X32	Y32	Z32	X33	Y33	Z33	X34	Y34	Z34	X35	Y35	Z35	X36	Y36	Z36	X37	Y37	Z37	X38	Y38	Z38	X39	Y39	Z39	X40	Y40	Z40	X41	Y41	Z41	X42	Y42	Z42	X43	Y43	Z43	X44	Y44	Z44	X45	Y45	Z45	X46	Y46	Z46	X47	Y47	Z47	X48	Y48	Z48	X49	Y49	Z49	X50	Y50	Z50	X51	Y51	Z51	X52	Y52	Z52	

24	0.23	52.45627212524415	838.8254394531252	-361.0588073730469	-177.0934448242188	859.4199829101565	-286.6997985839844	-178.8137817382813	854.0938110351565	-182.0495758056641	43.76897811889649	824.655700683594	-106.9404220581055	-17.71415328979493	769.6810302734377	-424.3753051757814	32.68087387084962	416.7959899902345	-346.1924438476563	43.28524017333985	419.4537353515626	-205.6631469726563	25.63592338562012	359.5441894531251	-346.3878479003907	86.21904754638673	376.8380126953126	-298.4114990234376	23.66218757629395	61.36289215087892	-293.9330444335938	49.43444824218751	79.19765472412111	-210.6150207519532	-9.617180824279787	21.96674346923828	-248.8109588623047	168.3591613769532	25.70467185974122	-203.1710205078126	184.97021484375	38.28306579589844	-257.6824340820313	144.5891876220703	21.48979949951172	-319.1121215820313	-29.37239646911622	734.9716796875001	-46.09505081176759	-49.36403656005861	408.667938232422	-50.72255325317384	10.08095645904541	360.3801879882813	-171.1540832519532	-78.63888549804689	369.9447631835938	-44.49251937866212	-24.83297729492188	327.3476867675782	-92.2128143310547	-332.6947326660157	216.5870513916016	-121.8643875122071	-281.1172180175782	189.3204803466797	-194.3635253906251	-364.9696960449219	225.6750946044922	-178.8364562988282	-309.8373413085938	65.23335266113283	-191.9737091064453	-304.3919677734376	57.59304809570314	-137.018051147461	-339.3619079589844	101.7556762695313	-96.34155273437503	-137.5426025390625	1308.265869140625	-242.4837646484376	-201.8572692871094	1111.332397460938	-249.1411285400391	49.21777343750001	1029.41015625	-241.7376708984376	-9.668290138244631	1233.418334960938	-244.0559539794922	-201.3925476074219	1138.533203125	-323.7338867187501	-163.2203979492188	1258.546875	-324.1473083496094	-120.7568893432617	1262.942993164063	-387.1187744140626	-56.74363708496095	1249.530639648438	-424.3476867675782	-97.31712341308597	983.3332519531252	-479.8426513671876	-133.6911773681641	968.3018798828127	-399.4986572265626	-139.0195007324219	966.4663696289065	-449.6563415527345	-45.06199264526368	769.7185668945315	-454.0896606445314	-100.5925979614258	773.2515869140627	-509.1850585937501	-28.81211471557618	678.1928100585939	-469.5802612304689	-110.2989959716797	694.7404174804689	-515.3197021484376	-202.4754791259766	1135.361938476563	-141.1241912841797	-162.142562866211	1256.56005859375	-155.3336181640625	-129.0770721435547	1255.90966796875	-93.22983551025392	-51.50366592407228	1247.200317382813	-66.36011505126955	-68.47418212890626	975.0850219726565	6.118963718414308	-124.0517044067383	966.2344970703127	-78.02992248535158	-116.9968719482422	956.4273071289065	-20.66920852661133	14.28523445129395	772.9631347656252	-30.16740417480469	-39.23468780517579	768.3233032226565	28.91305351257325	32.31821441650391	679.6749877929689	-15.44589519500733	-53.19514846801759	702.8029785156251	34.06165313720704	
25	0.24	61.14227676391603	839.2916259765627	-363.4475402832032	-168.0791625976563	860.3074340820315	-287.0339050292969	-169.5661315917969	855.0434570312502	-182.9854583740235	53.03237533569337	825.7764282226565	-107.2217788696289	-10.06651592254639	769.7575683593752	-425.3715820312501	36.94438552856446	416.6644592285157	-346.6282958984376	46.46097946166993	419.4491271972657	-206.0637817382813	29.29257774353028	359.4375000000001	-346.7606811523438	89.83975219726564	376.1580200195313	-298.4326477050782	24.0274887084961	61.29704666137697	-293.8804321289063	49.35409164428712	79.13827514648439	-210.3676147460938	-9.667270660400392	21.95885467529297	-248.8423004150391	168.1922607421875	25.41033172607423	-203.0115966796876	185.1040344238282	38.1613883972168	-257.6431274414063	144.4176940917969	21.50320053100586	-319.1454162597657	-19.57291030883789	736.0142822265626	-47.54836654663087	-27.74181747436524	409.8346252441407	-49.84080123901369	30.2246494293213	363.0894165039063	-171.4959411621094	-56.80210494995119	370.7457885742188	-44.0733871459961	-2.823071718215943	329.2317810058594	-92.45579528808595	-310.6442871093751	217.5001068115235	-123.9913558959961	-258.6501159667969	191.352767944336	-196.3147888183594	-343.6174926757813	225.183090209961	-181.0490875244141	-280.6795349121094	66.13758087158205	-190.9556732177735	-275.8364868164063	60.32661819458009	-135.7343444824219	-312.6660156250001	103.852279663086	-96.77613067626956	-126.9173812866211	1309.521240234375	-243.3731994628907	-191.6983032226563	1112.893188476563	-250.3816986083985	58.88447952270509	1029.8193359375	-242.2395477294922	0.8489136695861819	1234.2861328125	-244.7345275878907	-190.9377746582032	1140.139404296875	-325.1516723632813	-152.3182373046875	1260.00390625	-325.3335571289063	-109.5580139160157	1264.198364257813	-388.1197204589845	-45.37119293212891	1250.609252929688	-424.9785461425782	-84.60205841064455	984.5885009765627	-481.436492919922	-121.5956726074219	968.9287719726565	-401.3789978027345	-126.4824447631836	967.257019042969	-451.582000732422	-30.65968704223634	771.2720336914065	-456.1360473632814	-86.06945800781251	774.5510253906252	-511.4842834472657	-13.04654407501221	680.1793212890626	-472.7150268554689	-94.75624084472658	696.0164794921876	-518.2962646484376	-192.6346435546876	1136.955200195313	-142.3306884765625	-151.7511901855469	1257.9462890625	-156.2119903564453	-118.7446975708008	1257.1396484375	-94.04389953613283	-41.11465454101563	1248.136474609375	-67.16738891601564	-58.60288238525392	976.2728271484377	5.471014022827149	-114.5061416625977	967.3802490234377	-78.5706253051758	-107.2554168701172	957.7232666015627	-21.29076766967774	23.62932395935059	773.6580200195315	-30.22782516479493	-30.22167968750001	769.5090942382815	28.89796447753907	41.17963409423829	680.4970092773439	-14.99621772766114	-44.39481735229493	704.0003662109376	34.20166778564454	
26	0.25	69.61074066162111	839.6543579101565	-365.8563842773438	-159.1809692382813	861.126159667969	-287.5236511230469	-160.5365447998047	856.109558105469	-184.2516021728516	61.95787811279298	827.0852661132815	-107.1125946044922	-2.587074518203736	769.6085205078127	-426.3325805664064	40.93188095092774	416.4656677246095	-346.9849548339844	49.0553550720215	419.4248657226564	-206.3421478271485	32.76281356811524	359.2874755859376	-347.0516662597657	93.24037933349611	375.4910278320313	-298.2899169921876	24.44567489624024	61.23189544677736	-293.8107910156251	49.32252883911134	79.08507537841798	-210.0920867919922	-9.69672203063965	21.99789619445801	-248.8439178466797	168.0970458984375	25.12744331359864	-202.8946075439454	185.2493591308594	38.01180648803712	-257.6268005371094	144.2813568115235	21.4690055847168	-319.1567382812501	-10.19817733764649	737.2673950195314	-48.98302078247072	-6.218624114990236	411.3260192871095	-49.23316955566408	50.09353256225587	366.2463073730469	-172.1355590820313	-35.11238098144532	371.7718505859376	-44.01118469238282	19.24312782287598	331.4845275878907	-92.94664764404298	-287.9727172851563	217.1628570556641	-126.0008392333985	-235.6219177246094	192.641342163086	-198.2666625976563	-321.8114318847657	223.3478546142579	-183.0727081298828	-250.2546386718751	66.62524414062501	-190.4555053710938	-245.6643371582032	62.65827941894533	-135.0740356445313	-284.6074218750001	104.7328720092774	-97.49172973632815	-116.3652420043946	1310.757690429688	-244.1721801757813	-181.6364898681641	1114.445556640625	-251.5672760009766	68.4076385498047	1030.14208984375	-242.7125854492188	11.27561473846436	1235.10302734375	-245.3497009277344	-180.5687713623047	1141.748291015625	-326.4833679199219	-141.525131225586	1261.469116210938	-326.4220275878907	-98.49091339111331	1265.467407226563	-389.0249023437501	-34.16304779052735	1251.704345703125	-425.5329589843751	-72.0509719848633	985.8582153320315	-482.9432067871095	-109.6288833618164	969.5725097656252	-403.1755676269532	-114.1058502197266	968.046569824219	-453.4169921875001	-16.19020652770996	772.897644042969	-458.0328369140626	-71.58931732177736	775.8684692382815	-513.6192626953126	2.854549884796143	682.3311767578126	-475.770721435547	-79.11865234375001	697.3197021484376	-521.1539306640626	-182.9166564941407	1138.541137695313	-143.4880065917969	-141.4436950683594	1259.30712890625	-157.01953125	-108.4969711303711	1258.332153320313	-94.80113220214845	-30.81628036499024	1249.029907226563	-67.90170288085939	-48.82073211669923	977.409118652344	4.859596729278565	-104.9752426147461	968.470642089844	-79.10414123535158	-97.58246612548831	958.9629516601565	-21.88887023925782	32.78776550292969	774.345642089844	-30.29533958435059	-21.24867630004883	770.664001464844	28.91936111450196	49.9280128479004	681.2620239257814	-14.54464054107666	-35.63728332519532	705.1702270507814	34.41928100585938	
27	0.26	77.90890502929689	839.9375000000002	-368.2051391601563	-150.3545532226563	861.8919677734377	-288.2051696777344	-151.6909637451172	857.2722167968752	-185.8189086914063	70.60025024414064	828.5667114257815	-106.7155151367188	4.805458068847657	769.2968750000002	-427.2634582519532	44.70585632324219	416.2234191894532	-347.2600402832032	51.25925064086915	419.4294433593751	-206.505111694336	36.08270263671876	359.1206359863282	-347.2626037597657	96.46963500976565	374.8500976562501	-298.0145568847657	24.92140007019044	61.182430267334	-293.7189025878907	49.35404586791994	79.03075408935548	-209.7847747802735	-9.697988510131838	22.08506965637207	-248.8186035156251	168.0779724121094	24.84944725036622	-202.8100738525391	185.4198760986328	37.83166122436524	-257.6206665039063	144.1884918212891	21.39714431762696	-319.1560058593751	-1.162928938865662	738.6895751953126	-50.38728332519533	15.10557460784912	413.1231994628907	-48.90742874145509	69.75195312500001	369.7567443847657	-172.9969787597657	-13.64887428283692	373.0301818847657	-44.28401184082032	41.27779769897462	334.0779113769532	-93.62167358398439	-264.7190856933594	215.584701538086	-127.8128280639649	-212.0769500732422	193.1129150390626	-200.132553100586	-299.5294494628907	220.2093963623047	-184.841293334961	-218.8961944580079	66.72650146484376	-190.4485778808594	-214.2557830810547	64.51556396484376	-135.0185089111328	-255.4572448730469	104.4336853027344	-98.43472290039065	-105.8849639892578	1311.96484375	-244.8892669677735	-171.6639251708985	1115.97216796875	-252.6982421875001	77.80828094482423	1030.409057617188	-243.1712799072266	21.61127281188965	1235.87060546875	-245.904525756836	-170.2813720703125	1143.342041015625	-327.7278137207032	-130.8434295654297	1262.9248046875	-327.4133605957032	-87.56349945068361	1266.740966796875	-389.8385314941407	-23.12877082824707	1252.815551757813	-426.0220947265626	-59.69698715209962	987.1375732421877	-484.3691406250001	-97.80064392089847	970.2371826171877	-404.8854370117189	-101.9126586914063	968.8318481445315	-455.1593627929689	-1.66570270061493	774.5980224609377	-459.7770385742189	-57.18764877319337	777.1942138671877	-515.5686645507814	18.85449981689453	684.6558227539064	-478.7124328613282	-63.4216766357422	698.6425170898439	-523.8513183593751	-173.3046417236328	1140.096557617188	-144.5963897705078	-131.2141876220703	1260.623779296875	-157.7674102783203	-98.33497619628909	1259.475463867188	-95.51287841796876	-20.61678504943848	1249.879638671875	-68.5678176879883	-39.15719604492188	978.4854125976565	4.2850980758667	-95.45019531250001	969.5037841796877	-79.64965820312501	-87.99477386474611	960.1384887695315	-22.47479057312012	41.77220153808594	775.0264892578127	-30.36064910888673	-12.32354259490967	771.7796630859377	28.96166992187501	58.56760787963869	681.9694824218751	-14.10664367675782	-26.9285011291504	706.3064575195314	34.68966293334962	
